<svg width="960" height="720" viewBox="0 0 960 720" fill="none" xmlns="http://www.w3.org/2000/svg">
  <rect width="960" height="720" rx="40" fill="#F8FBFF"/>
  <circle cx="172" cy="564" r="112" fill="#E0F2FE"/>
  <circle cx="794" cy="142" r="92" fill="#ECFEFF"/>
  <rect x="92" y="92" width="776" height="536" rx="36" fill="white"/>
  <rect x="130" y="130" width="344" height="460" rx="30" fill="url(#paint0_linear)"/>
  <rect x="516" y="130" width="314" height="140" rx="28" fill="#0F172A"/>
  <text x="550" y="184" fill="#F8FAFC" font-family="Arial, sans-serif" font-size="24" font-weight="700">WhatsApp-ready flow</text>
  <text x="550" y="220" fill="#93C5FD" font-family="Arial, sans-serif" font-size="17" font-weight="600">Student, tutor, and demo handoff</text>
  <rect x="516" y="298" width="314" height="176" rx="28" fill="#F8FAFC" stroke="#E2E8F0"/>
  <path d="M560 424L612 374L664 394L742 332" stroke="#2563EB" stroke-width="14" stroke-linecap="round" stroke-linejoin="round"/>
  <circle cx="560" cy="424" r="12" fill="#2563EB"/>
  <circle cx="612" cy="374" r="12" fill="#38BDF8"/>
  <circle cx="664" cy="394" r="12" fill="#0F172A"/>
  <circle cx="742" cy="332" r="12" fill="#1D4ED8"/>
  <text x="550" y="356" fill="#0F172A" font-family="Arial, sans-serif" font-size="22" font-weight="700">Weekly progress view</text>
  <rect x="516" y="502" width="148" height="88" rx="24" fill="#ECFEFF"/>
  <text x="544" y="555" fill="#0891B2" font-family="Arial, sans-serif" font-size="28" font-weight="700">4.6/5</text>
  <rect x="682" y="502" width="148" height="88" rx="24" fill="#EEF2FF"/>
  <text x="710" y="555" fill="#4338CA" font-family="Arial, sans-serif" font-size="26" font-weight="700">10 sectors</text>
  <rect x="176" y="186" width="248" height="326" rx="28" fill="white"/>
  <rect x="206" y="218" width="188" height="28" rx="14" fill="#DBEAFE"/>
  <rect x="206" y="266" width="120" height="18" rx="9" fill="#E0F2FE"/>
  <rect x="206" y="302" width="138" height="18" rx="9" fill="#E0F2FE"/>
  <rect x="206" y="348" width="168" height="60" rx="20" fill="#0F172A"/>
  <text x="234" y="385" fill="#F8FAFC" font-family="Arial, sans-serif" font-size="24" font-weight="700">95%</text>
  <rect x="206" y="430" width="188" height="18" rx="9" fill="#DBEAFE"/>
  <rect x="206" y="462" width="150" height="18" rx="9" fill="#E0F2FE"/>
  <defs>
    <linearGradient id="paint0_linear" x1="130" y1="130" x2="474" y2="590" gradientUnits="userSpaceOnUse">
      <stop stop-color="#EEF6FF"/>
      <stop offset="1" stop-color="#F8FAFC"/>
    </linearGradient>
  </defs>
</svg>
